<?xml version="1.0" encoding="utf-8"?>
<!-- Generator: Adobe Illustrator 22.1.0, SVG Export Plug-In . SVG Version: 6.00 Build 0)  -->
<svg version="1.1" id="Layer_1" xmlns="http://www.w3.org/2000/svg" xmlns:xlink="http://www.w3.org/1999/xlink" x="0px" y="0px"
	 viewBox="0 0 87.1 87.1" style="enable-background:new 0 0 87.1 87.1;" xml:space="preserve">
<style type="text/css">
	.st0{opacity:0.1;fill:#213547;enable-background:new    ;}
</style>
<rect x="31.5" y="71.6" transform="matrix(0.7284 -0.6852 0.6852 0.7284 -40.0572 42.8755)" class="st0" width="5.1" height="0.7"/>
<polygon class="st0" points="30.6,42.5 33.3,41.3 35.7,43.1 36.1,42.5 34,41 36.4,40.1 36.1,39.5 33.4,40.6 31,38.9 30.6,39.4 
	32.7,40.9 30.3,41.9 "/>
<polygon class="st0" points="15.1,64.3 13.5,66.3 12.7,63.9 12.1,64.1 13,66.9 11.2,69.2 11.7,69.6 13.3,67.6 14.1,70 14.7,69.8 
	13.8,67 15.6,64.7 "/>
<polygon class="st0" points="25.9,13.5 28,16.1 28.5,15.7 26.4,13 27.6,10.1 26.9,9.9 25.8,12.8 22.6,13.3 22.7,14 "/>
<rect x="30.7" y="4.1" transform="matrix(0.9048 -0.4258 0.4258 0.9048 1.2856 14.6472)" class="st0" width="5.4" height="0.7"/>
<polygon class="st0" points="44,38 44.6,38.1 44.7,36.6 46.2,36.7 46.3,36 44.8,36 44.9,34.5 44.2,34.4 44.1,35.9 42.7,35.8 
	42.6,36.5 44.1,36.6 "/>
<rect x="34.9" y="27.4" transform="matrix(0.7272 -0.6864 0.6864 0.7272 -8.5736 33.9658)" class="st0" width="7.1" height="0.7"/>
<polygon class="st0" points="9.3,50.3 10,50.4 10.2,45.5 10.2,45.4 10.1,45.3 5.9,42.6 5.5,43.1 9.5,45.6 "/>
<rect x="10.9" y="75.1" transform="matrix(5.895078e-03 -1 1 5.895078e-03 -67.236 89.1758)" class="st0" width="0.7" height="6.6"/>
<polygon class="st0" points="6.2,18.2 5.6,18.2 5.6,23.4 6.2,23.4 "/>
<polygon class="st0" points="7,9.2 8.6,8.5 8.5,10.3 9.1,10.3 9.2,8.5 10.8,9.5 11.2,9 9.7,8 11.2,7.3 10.9,6.7 9.3,7.5 9.4,5.7 
	8.8,5.7 8.7,7.3 7.3,6.5 7,7 8.3,7.9 6.7,8.7 "/>
<rect x="10.2" y="30.1" transform="matrix(0.488 -0.8728 0.8728 0.488 -19.6419 27.3614)" class="st0" width="6.6" height="0.7"/>
<polygon class="st0" points="71.6,63.4 71.5,65.1 70.2,64.2 69.8,64.7 71.2,65.6 69.6,66.4 69.8,66.9 71.4,66.2 71.3,68 71.9,68 
	72.1,66.2 73.6,67.2 74,66.7 72.5,65.7 74,65 73.7,64.4 72.1,65.2 72.3,63.4 "/>
<rect x="81.1" y="38.2" class="st0" width="0.7" height="5.1"/>
<polygon class="st0" points="79.9,27.6 80.6,27.7 80.8,22.7 80.8,22.6 76.5,19.9 76.2,20.4 80.2,22.9 "/>
<polygon class="st0" points="79.4,8 81,7.3 80.9,9 81.5,9 81.7,7.2 83.2,8.3 83.6,7.7 82.1,6.8 83.6,6.1 83.3,5.5 81.7,6.2 
	81.9,4.5 81.2,4.4 81.1,6.1 79.8,5.2 79.4,5.8 80.8,6.7 79.2,7.4 "/>
<polygon class="st0" points="54.4,21.4 56.8,24.3 57.3,23.9 54.9,21 56.2,17.7 55.6,17.5 54.3,20.8 50.8,21.3 50.9,22 "/>
<rect x="53.1" y="62.3" transform="matrix(0.921 -0.3896 0.3896 0.921 -19.8787 27.2506)" class="st0" width="8.3" height="0.7"/>
<polygon class="st0" points="45.8,13.7 47.3,11.9 48,14.1 48.6,13.9 47.8,11.3 49.4,9.2 48.9,8.8 47.5,10.6 46.8,8.5 46.1,8.7 
	47,11.2 45.3,13.3 "/>
<rect x="68.6" y="8.4" transform="matrix(0.9055 -0.4244 0.4244 0.9055 3.0228 31.088)" class="st0" width="5.4" height="0.7"/>
<rect x="59.5" y="40.7" transform="matrix(0.8743 -0.4855 0.4855 0.8743 -13.9607 34.6276)" class="st0" width="0.7" height="7.1"/>
<polygon class="st0" points="80.4,47.4 79.7,47.3 79.6,49 77.9,48.9 77.9,49.5 79.6,49.6 79.4,51.3 80.1,51.3 80.2,49.7 81.9,49.8 
	81.9,49.1 80.3,49 "/>
<rect x="75.8" y="74.4" transform="matrix(0.5761 -0.8174 0.8174 0.5761 -31.9395 95.5333)" class="st0" width="0.7" height="8.3"/>
<rect x="74.4" y="51.5" transform="matrix(6.623455e-02 -0.9978 0.9978 6.623455e-02 16.6785 124.2457)" class="st0" width="0.7" height="3.5"/>
<rect x="62.6" y="11.6" transform="matrix(0.576 -0.8175 0.8175 0.576 13.836 58.1255)" class="st0" width="0.7" height="8.3"/>
<rect x="23.6" y="60.9" transform="matrix(0.9048 -0.4258 0.4258 0.9048 -23.5801 17.0298)" class="st0" width="5.4" height="0.7"/>
<polygon class="st0" points="30.5,80 29.9,79.7 28.8,82.7 25.6,83.2 25.7,83.8 28.9,83.3 31,85.9 31.5,85.5 29.4,82.9 "/>
<rect x="21.6" y="22.7" transform="matrix(0.8779 -0.4789 0.4789 0.8779 -9.7707 13.689)" class="st0" width="0.7" height="6.6"/>
<polygon class="st0" points="22.4,45.2 20.8,46 20.9,44.2 20.2,44.2 20.1,45.8 18.8,45 18.4,45.5 19.8,46.4 18.2,47.1 18.5,47.7 
	20,47 19.9,48.7 20.6,48.8 20.7,47 22.3,48 22.6,47.5 21.1,46.5 22.6,45.8 "/>
<polygon class="st0" points="56.1,49.8 52.7,49.4 52.6,49.4 50.5,52.3 51,52.7 52.9,50.1 56,50.4 "/>
<polygon class="st0" points="56.6,76.9 55.7,74 57.5,71.7 57,71.3 55.4,73.3 54.6,70.9 53.9,71.1 54.9,73.9 53,76.2 53.6,76.6 
	55.2,74.6 56,77.1 "/>
<polygon class="st0" points="39.2,53.1 38.6,53.2 39.7,58 39.8,58.2 44.5,59.7 44.7,59.1 40.3,57.7 "/>
<rect x="61.9" y="31.5" transform="matrix(0.7715 -0.6362 0.6362 0.7715 -7.3674 47.3486)" class="st0" width="0.7" height="4.9"/>
</svg>
